<svg xmlns="http://www.w3.org/2000/svg" xmlns:xlink="http://www.w3.org/1999/xlink" width="500" zoomAndPan="magnify" viewBox="0 0 375 374.999991" height="500" preserveAspectRatio="xMidYMid meet" version="1.0"><defs><clipPath id="10edb6cb43"><path d="M 52.609375 50.316406 L 356.558594 50.316406 L 356.558594 324.699219 L 52.609375 324.699219 Z M 52.609375 50.316406 " clip-rule="nonzero"/></clipPath><clipPath id="24cb108e3c"><path d="M 18.308594 125.027344 L 257.386719 125.027344 L 257.386719 324.699219 L 18.308594 324.699219 Z M 18.308594 125.027344 " clip-rule="nonzero"/></clipPath></defs><rect x="-37.5" width="450" fill="#ffffff" y="-37.499999" height="449.999989" fill-opacity="1"/><rect x="-37.5" width="450" fill="#fffafa" y="-37.499999" height="449.999989" fill-opacity="1"/><g clip-path="url(#10edb6cb43)"><path fill="#ffffff" d="M 280.914062 237.304688 L 280.890625 237.3125 C 311.488281 220.269531 332.191406 187.601562 332.191406 150.089844 C 332.191406 94.988281 287.519531 50.316406 232.417969 50.316406 L 52.78125 50.316406 L 76.671875 77.871094 C 88.96875 92.054688 106.8125 100.203125 125.585938 100.203125 L 232.417969 100.203125 C 259.96875 100.203125 282.304688 122.539062 282.304688 150.089844 C 282.304688 177.644531 259.96875 199.976562 232.417969 199.976562 L 182.527344 199.980469 L 225.777344 249.867188 L 271.289062 302.367188 C 283.585938 316.550781 301.433594 324.699219 320.203125 324.699219 L 356.671875 324.699219 L 280.914062 237.304688 " fill-opacity="1" fill-rule="nonzero"/></g><g clip-path="url(#24cb108e3c)"><path fill="#ffffff" d="M 226.929688 175.035156 L 203.039062 147.476562 C 190.742188 133.296875 172.894531 125.148438 154.125 125.148438 L 18.308594 125.148438 L 171.941406 302.367188 C 184.238281 316.550781 202.085938 324.699219 220.855469 324.699219 L 257.328125 324.699219 L 127.582031 175.035156 L 226.929688 175.035156 " fill-opacity="1" fill-rule="nonzero"/></g></svg>