<svg xmlns="http://www.w3.org/2000/svg" xmlns:xlink="http://www.w3.org/1999/xlink" width="500" zoomAndPan="magnify" viewBox="0 0 375 149.999998" height="200" preserveAspectRatio="xMidYMid meet" version="1.0"><defs><g/><clipPath id="4df4009b16"><path d="M 30.203125 14.1875 L 164.992188 14.1875 L 164.992188 135.65625 L 30.203125 135.65625 Z M 30.203125 14.1875 " clip-rule="nonzero"/></clipPath><clipPath id="533ac1e05a"><path d="M 15 47.308594 L 120.980469 47.308594 L 120.980469 135.65625 L 15 135.65625 Z M 15 47.308594 " clip-rule="nonzero"/></clipPath></defs><g clip-path="url(#4df4009b16)"><path fill="#ffffff" d="M 131.410156 97.078125 L 131.398438 97.082031 C 144.964844 89.527344 154.140625 75.046875 154.140625 58.417969 C 154.140625 33.988281 134.339844 14.1875 109.910156 14.1875 L 30.28125 14.1875 L 40.871094 26.402344 C 46.324219 32.691406 54.234375 36.300781 62.554688 36.300781 L 109.910156 36.300781 C 122.125 36.300781 132.027344 46.203125 132.027344 58.417969 C 132.027344 70.632812 122.125 80.53125 109.910156 80.53125 L 87.796875 80.53125 L 106.96875 102.648438 L 127.144531 125.917969 C 132.59375 132.207031 140.507812 135.820312 148.828125 135.820312 L 164.992188 135.820312 L 131.410156 97.078125 " fill-opacity="1" fill-rule="nonzero"/></g><g clip-path="url(#533ac1e05a)"><path fill="#ffffff" d="M 107.480469 69.472656 L 96.890625 57.257812 C 91.4375 50.972656 83.527344 47.359375 75.207031 47.359375 L 15 47.359375 L 83.105469 125.917969 C 88.554688 132.207031 96.464844 135.820312 104.789062 135.820312 L 120.953125 135.820312 L 63.441406 69.472656 L 107.480469 69.472656 " fill-opacity="1" fill-rule="nonzero"/></g><g fill="#ffffff" fill-opacity="1"><g transform="translate(180.503899, 89.805011)"><g><path d="M 2.171875 -29.765625 L 12.8125 -29.765625 C 15.664062 -29.765625 17.992188 -29 19.796875 -27.46875 C 21.609375 -25.945312 22.515625 -23.765625 22.515625 -20.921875 C 22.515625 -18.734375 21.96875 -16.898438 20.875 -15.421875 C 19.78125 -13.941406 18.296875 -12.898438 16.421875 -12.296875 L 26.65625 0 L 18.046875 0 L 8.953125 -11.765625 L 8.953125 0 L 2.171875 0 Z M 8.953125 -16.5625 L 9.734375 -16.5625 C 10.359375 -16.5625 10.890625 -16.570312 11.328125 -16.59375 C 11.765625 -16.613281 12.257812 -16.695312 12.8125 -16.84375 C 13.363281 -16.988281 13.804688 -17.191406 14.140625 -17.453125 C 14.472656 -17.722656 14.757812 -18.109375 15 -18.609375 C 15.25 -19.117188 15.375 -19.734375 15.375 -20.453125 C 15.375 -21.171875 15.25 -21.78125 15 -22.28125 C 14.757812 -22.789062 14.472656 -23.175781 14.140625 -23.4375 C 13.804688 -23.707031 13.363281 -23.914062 12.8125 -24.0625 C 12.257812 -24.207031 11.765625 -24.289062 11.328125 -24.3125 C 10.890625 -24.34375 10.359375 -24.359375 9.734375 -24.359375 L 8.953125 -24.359375 Z M 8.953125 -16.5625 "/></g></g></g><g fill="#ffffff" fill-opacity="1"><g transform="translate(206.330271, 89.805011)"><g><path d="M 0.828125 -14.90625 C 0.828125 -19.207031 2.296875 -22.847656 5.234375 -25.828125 C 8.171875 -28.816406 11.707031 -30.3125 15.84375 -30.3125 C 20 -30.3125 23.53125 -28.820312 26.4375 -25.84375 C 29.351562 -22.875 30.8125 -19.226562 30.8125 -14.90625 C 30.8125 -10.550781 29.378906 -6.882812 26.515625 -3.90625 C 23.648438 -0.9375 20.09375 0.546875 15.84375 0.546875 C 11.488281 0.546875 7.894531 -0.925781 5.0625 -3.875 C 2.238281 -6.820312 0.828125 -10.5 0.828125 -14.90625 Z M 8.15625 -14.90625 C 8.15625 -13.34375 8.394531 -11.914062 8.875 -10.625 C 9.351562 -9.332031 10.191406 -8.242188 11.390625 -7.359375 C 12.597656 -6.472656 14.082031 -6.03125 15.84375 -6.03125 C 18.363281 -6.03125 20.265625 -6.894531 21.546875 -8.625 C 22.835938 -10.351562 23.484375 -12.445312 23.484375 -14.90625 C 23.484375 -17.332031 22.828125 -19.414062 21.515625 -21.15625 C 20.203125 -22.90625 18.3125 -23.78125 15.84375 -23.78125 C 13.382812 -23.78125 11.488281 -22.90625 10.15625 -21.15625 C 8.820312 -19.414062 8.15625 -17.332031 8.15625 -14.90625 Z M 8.15625 -14.90625 "/></g></g></g><g fill="#ffffff" fill-opacity="1"><g transform="translate(237.963959, 89.805011)"><g><path d="M 0.28125 -23.8125 L 0.28125 -29.765625 L 21.21875 -29.765625 L 21.21875 -23.8125 L 14.140625 -23.8125 L 14.140625 0 L 7.359375 0 L 7.359375 -23.8125 Z M 0.28125 -23.8125 "/></g></g></g><g fill="#ffffff" fill-opacity="1"><g transform="translate(259.46189, 89.805011)"><g><path d="M 19.1875 -29.765625 L 19.1875 -23.8125 L 8.953125 -23.8125 L 8.953125 -17.890625 L 18.765625 -17.890625 L 18.765625 -11.9375 L 8.953125 -11.9375 L 8.953125 -5.953125 L 19.1875 -5.953125 L 19.1875 0 L 2.171875 0 L 2.171875 -29.765625 Z M 19.1875 -29.765625 "/></g></g></g><g fill="#ffffff" fill-opacity="1"><g transform="translate(280.382696, 89.805011)"><g><path d="M 17.28125 -29.765625 L 29.296875 0 L 22 0 L 19.8125 -5.953125 L 8.484375 -5.953125 L 6.28125 0 L -1.015625 0 L 11 -29.765625 Z M 17.5 -11.90625 L 14.171875 -20.5625 L 14.109375 -20.5625 L 10.78125 -11.90625 Z M 17.5 -11.90625 "/></g></g></g><g fill="#ffffff" fill-opacity="1"><g transform="translate(308.661846, 89.805011)"><g><path d="M 26.765625 0 L 25.359375 -17.640625 L 25.1875 -17.640625 L 19.078125 -0.1875 L 15.046875 -0.1875 L 8.953125 -17.640625 L 8.765625 -17.640625 L 7.359375 0 L 0.578125 0 L 3.25 -29.765625 L 10.46875 -29.765625 L 17.0625 -12.59375 L 23.671875 -29.765625 L 30.890625 -29.765625 L 33.546875 0 Z M 26.765625 0 "/></g></g></g></svg>